<svg width="3235" height="1810" viewBox="0 0 3235 1810" fill="none" xmlns="http://www.w3.org/2000/svg">
<g clip-path="url(#clip0_4642_752)">
<rect width="3235" height="1810" fill="white"/>
<path d="M2792.5 862.5C2735 679 2629.67 93.6667 2516 -133.5L3789.5 -304L4670.5 -11L4580 2831C4057 3086 2967.3 3401.8 2792.5 2625C2574 1654 2946.64 1354.39 2792.5 862.5Z" fill="#82251C" stroke="#82251C"/>
<path d="M-601 930.613C-565.312 914.499 -536.213 914.018 -501.519 924.164C-444.916 940.718 -394.033 933.122 -349.408 940.794C-314.432 946.806 -263.882 970.981 -210.434 995.988C-170.176 1014.82 -123.403 1057.32 -91.3058 1078.82C-53.5991 1104.07 -6.1086 1150.84 18.3167 1181.22C42.4155 1211.19 87.8074 1246.66 118.236 1288.59C159.931 1346.05 202.185 1400.55 246.542 1476.51C317.778 1598.5 352.847 1695.2 355.548 1712.15C362.371 1754.97 370.274 1813.55 375.415 1863.58C380.054 1908.72 378.105 1941.88 369.591 1986.79C357.626 2049.92 359.791 2142.49 359.11 2190.8C358.863 2206.82 359.236 2230.9 358.051 2247.66C356.867 2264.42 354.112 2273.14 351.273 2282.11" stroke="#82251C" stroke-width="198" stroke-linejoin="round"/>
<path d="M1487 2078C1487 2028.99 1493.48 1974.4 1532.69 1895.31C1574.1 1811.76 1585.05 1769.5 1601.56 1721.68C1625.5 1652.32 1666.99 1619.19 1703 1574.11C1730.69 1539.45 1765.24 1512.64 1817.56 1463.5C1864.75 1419.19 1889.63 1386.91 1927.35 1336.46C1957.46 1296.2 2004.18 1242.33 2048.49 1192.99C2086.93 1150.19 2122.08 1113.82 2148.46 1076.86C2196.9 1008.99 2276.14 930.721 2307.23 895.191C2350.46 845.797 2380.87 821.386 2421.84 783.192C2493.5 716.389 2580.71 635.664 2621.63 601.486C2659.47 569.883 2685.44 523.706 2710.11 485.39C2745.92 429.741 2796.86 397.979 2826.33 361.097C2868.97 307.741 2901.59 275.039 2926.25 238.157C2962.84 183.437 3009.67 117.02 3040.86 42.8865C3069.33 -24.7644 3094.95 -66.4074 3111.31 -118.329C3128.84 -173.98 3153.9 -224.755 3167.01 -286.348C3175.52 -326.278 3189.86 -375.07 3198.16 -420.271C3206.91 -467.944 3212.85 -528.171 3217.81 -574.602C3226.01 -612.918 3229.25 -642.998 3234.17 -676.929C3235.84 -702.747 3235.84 -746.022 3226.01 -807" stroke="#C98633" stroke-width="198" stroke-linejoin="round"/>
<path d="M-121.161 186C-124.546 225.107 -131.42 328.717 -122.905 404.547C-115.399 471.385 -73.3511 549.124 -44.3165 628.578C-28.9008 670.764 8.52024 744.723 51.4052 809.291C87.7141 863.959 118.092 903.892 155.694 959.451C182.605 999.214 220.688 1025.85 241.258 1058.56C261.111 1090.12 309.536 1123.78 367.656 1162.98C417.488 1196.6 466.917 1230.46 558.843 1268.48C752.425 1348.57 866.835 1347.97 937.011 1366.55C1006.5 1384.94 1078.8 1380.75 1152.46 1388.32C1230.77 1396.37 1290.97 1404.64 1376.38 1407.94C1483.32 1412.07 1632.4 1430.75 1740.54 1438.39C1881.96 1448.38 1930.55 1454.65 1992.05 1460.17C2057.07 1466 2132.04 1469.93 2192.17 1478.64C2261.32 1488.67 2310.15 1493.82 2404.03 1499.34C2471.69 1503.31 2545.91 1515.63 2645.12 1523.27C2737.65 1530.39 2826.41 1548.27 2877.86 1556.99C2940.6 1567.61 3061.77 1608.99 3175.29 1645.06C3255.24 1670.46 3404.02 1728.72 3496.77 1765.81C3558.52 1790.49 3599.37 1818.04 3710.37 1887.53C3761.73 1919.68 3791.02 1948.61 3905.2 2047.29C3999.69 2151.06 4020.21 2177.11 4050.94 2209.75C4057.87 2218.5 4061.25 2227.12 4075 2236" stroke="#305568" stroke-width="198" stroke-linejoin="round"/>
<path d="M-994 -143C-949.923 -125.566 -885.135 -90.5477 -830.436 -66.6886C-771.961 -41.1821 -652.357 14.5072 -603.191 49.7885C-532.323 100.642 -424.713 195.009 -386.389 232.583C-353.075 265.244 -333.196 292.7 -245.041 402.564C-155.858 513.71 -112.102 570.742 -88.3371 607.076C-65.0677 642.652 -38.2855 690.826 -5.75862 723.59C25.7195 755.298 38.5399 796.182 92.9284 872.381C150.216 952.64 165.284 986.603 191.925 1032.86C217.436 1077.15 247.951 1126.83 280.389 1176.87C307.314 1218.41 333.45 1242.1 365.977 1275.88C393.602 1304.57 424.791 1354.67 460.371 1391.12C497.089 1428.73 528.169 1457.47 603.268 1544.94C652.028 1601.73 696.335 1625.35 728.862 1652.89C757.915 1677.49 784.843 1708.01 836.444 1746.79C879.18 1778.9 917.606 1805.7 953.054 1822.01C999.933 1843.57 1023.82 1885.81 1082.76 1915.9C1110.09 1929.86 1241.1 1993.12 1429.85 2080.74C1537.25 2136.42 1566.73 2143.94 1588.81 2150.17C1599.21 2153.93 1607.97 2158.89 1617 2164" stroke="#C98633" stroke-width="198"/>
</g>
<defs>
<clipPath id="clip0_4642_752">
<rect width="3235" height="1810" fill="white"/>
</clipPath>
</defs>
</svg>
