<svg width="3235" height="1810" viewBox="0 0 3235 1810" fill="none" xmlns="http://www.w3.org/2000/svg">
<g clip-path="url(#clip0_4642_752)">
<rect width="3235" height="1810" fill="white"/>
<path d="M1594.35 1322.77C534.204 1537.64 14.4642 1017.55 -112.888 730.651L-253.125 546.003L-751.294 2081.54L2506.64 3068.6L2866.93 2029.8C2884.46 1704.59 2654.49 1107.89 1594.35 1322.77Z" fill="#82251C" stroke="#82251C"/>
<path d="M554.292 383.595C196.265 373.179 -165.289 -143.417 -301.312 -400.413L-614.586 -459L-853 121.988C-810.552 499.819 -554.535 1254.18 129.948 1248.97C985.553 1242.46 1001.83 396.614 554.292 383.595Z" fill="#305568" stroke="#305568"/>
<path d="M2638.69 853.87C2813.07 40.4469 2434.65 -307.722 2223.64 -380.129L3709.99 -343.066L3811.16 1933.07C3347.68 1912.26 2464.32 1667.29 2638.69 853.87Z" fill="#C98633" stroke="#C98633"/>
</g>
<defs>
<clipPath id="clip0_4642_752">
<rect width="3235" height="1810" fill="white"/>
</clipPath>
</defs>
</svg>
