<svg width="1133" height="510" viewBox="0 0 1133 510" fill="none" xmlns="http://www.w3.org/2000/svg">
<g clip-path="url(#clip0_4634_2)">
<path d="M217.2 504.69C209.75 508.33 195.54 509.02 187 506.15C171.56 500.97 151.07 490.31 138.31 480.84C105.97 456.82 79.48 432.75 63.64 413C33.19 375.01 10.84 324.49 1.92997 273.5C-0.510027 259.53 -0.660026 240.58 1.60997 232.93C3.96997 224.94 10.5 214.38 15.14 211.01C24.42 204.29 37.54 203.17 47.5 208.26C55.32 212.25 69.69 227.31 80.17 242.5C83.25 246.96 88 255.19 103.24 282.5C119.9 312.37 126.73 322.81 148.18 351.17C164.57 372.85 173.42 380.43 183.73 381.65C192.38 382.68 198.97 378.47 219.61 358.74C230.65 348.18 242.63 333.67 251.58 320C263.76 301.4 277.34 272.86 280.07 260.1C281.82 251.97 280.88 237.65 278.38 234.31C274.67 229.33 271.37 227.62 264.69 227.19H264.66C263.15 227.1 261.94 227.02 260.73 227.04C255.8 227.14 250.91 228.93 226 238.01C188.78 251.58 186.82 251.97 178.11 247.56C171.52 244.22 167.97 241.05 163.46 234.5C160.14 229.68 159.82 228.76 161.06 227.52C163.08 225.54 194.18 207.92 208 200.94C214.33 197.74 223.1 194.14 227.5 192.94C234.59 190.99 237.12 190.8 250 191.29C265.94 191.88 274.69 193.81 285.25 199.05C296.86 204.81 302.96 211.42 307.64 223.34C308.07 224.45 308.47 225.64 308.84 226.91C308.3 226.16 308.27 227.13 308.75 230C309.16 232.48 309.45 243.5 309.39 254.5C309.26 276.82 307.07 292.74 300.45 319.41C298.55 327.06 297 333.77 297 334.33C297 335.42 297.22 335.46 297.63 334.54C291.67 354.12 280.49 386.56 274.86 400C274.28 401.38 270.06 412.4 265.47 424.5C250.29 464.56 248.79 467.91 240.14 480.96C232.32 492.77 224.02 501.36 217.2 504.69ZM704.06 345.38C703.41 332.14 703.2 313.23 703.57 301.34C704.29 278.76 703.16 263.41 700.48 259.34C698.35 256.08 695.88 255.27 679.5 252.43C658.77 248.85 656.53 248.3 651.29 245.63C638.84 239.27 634.08 228.82 638.92 218.5C643.82 208.05 651.49 204.06 674.5 199.96C686.69 197.79 702.66 193.06 706.75 190.41C707.99 189.61 709 188.26 709 187.42C709 186.44 708.48 186.56 707.23 187.86C708.19 186.47 708.86 183.98 709.43 179.33C708.68 189.91 710.12 184.53 711.55 170.89C712.3 163.68 712.76 157.6 712.58 157.25C713.36 154.63 714.59 150.47 715.76 146.5C720.98 128.66 726.23 119.69 734.7 114.07C741.47 109.59 746.42 109.79 751.24 114.75C755.53 119.15 758.92 126.21 762.41 138C767.02 153.58 772.71 173.32 775.42 183.12C776.28 186.21 777.69 189.33 778.56 190.05C779.54 190.86 787.28 192.04 798.82 193.13C820.69 195.19 826.28 196.5 838.74 202.47C860.85 213.08 868.28 228.98 856.34 240.16C847.28 248.63 829.89 254.64 809 256.5C800.48 257.26 783.78 259.76 781.56 260.62C780.74 260.93 779.83 261.94 779.54 262.87C779.25 263.8 778.57 287.05 778.03 314.53C777.49 342.01 776.82 367.88 776.53 372C776.24 376.12 775.53 387.38 774.95 397C773.25 425.23 768.17 464.89 764.76 476.5C760.91 489.61 755.25 498.83 748.5 503C738.41 509.24 731.91 506.65 725.39 493.78C722.5 488.09 719.44 478.61 717.98 470.87C717.46 468.08 716.45 464.55 715.68 462.76C715.84 462.08 715.79 460.12 715.44 457.25C715.05 454.09 714.33 450.6 713.85 449.5C713.4 448.47 713.31 449.78 713.48 452.09C713.33 450.9 713.19 449.68 713.08 448.47C711.6 432.68 710.26 422.63 708.58 414.74C708.59 414.74 708.6 414.73 708.61 414.72C708.86 414.48 708.35 405.55 707.48 394.89C705.85 374.77 705.21 370.31 705.08 378C705 382.88 706.14 396.9 707.19 406.14C706.06 397.31 705.03 384.49 704.18 369.3C705.05 376.79 705.07 366.11 704.06 345.38ZM1089.47 505.7C1087.2 508.06 1084.7 509.98 1083.92 509.96C1081.1 509.87 1075.13 505.97 1071.72 501.98C1063.36 492.22 1059.58 482.06 1052.56 450.5C1050.96 443.26 1047.36 419.79 1044.52 398C1042.36 381.43 1042.25 381 1040.23 380.98C1039.28 380.97 1029.05 390.59 1017.5 402.37C994.41 425.92 990.21 429 981.11 429C971.88 429 966.87 421.67 959.56 397.5C953.61 377.83 950.89 373.8 943.55 373.8C933.22 373.8 918.44 392.39 913.03 412.2C911.11 419.21 908.82 439.82 907.49 462C906.75 474.33 903.5 493.11 901.29 497.78C899.32 501.96 896.4 504 892.41 504C887.95 504 884.51 500.85 881.06 493.62C873.73 478.26 870.44 449.96 871.4 410.5C872.94 347.49 874.44 327.56 879.06 309C886.11 280.71 901.38 264.34 910.55 275.24C915.78 281.46 917.24 286.94 920.52 312.75C920.89 315.64 921.66 318.29 922.23 318.64C922.81 319 924.87 317.31 926.82 314.9C939.31 299.38 950.77 291.89 963.08 291.17C980.43 290.17 991.33 302.68 996.49 329.54C998.49 339.97 999.97 344.98 1001.59 346.87C1001.76 347.07 1006.78 342.68 1012.74 337.11C1033.38 317.82 1042.55 312.48 1055 312.52C1063.99 312.55 1068.51 314.57 1074.79 321.39C1082.42 329.66 1087.77 339.35 1092.54 353.5C1108.91 402.15 1107.2 487.19 1089.47 505.7ZM451.59 505.39C447.19 507.48 444.2 507.42 440.5 505.16C433.59 500.95 426.48 489.23 421.97 474.63C420.36 469.44 412 431.47 412 429.39C412 429.17 411.11 429 410.01 429C408.92 429 405.36 431.02 402.11 433.49C389.73 442.91 375.37 447.35 364.06 445.25C344.07 441.53 325.16 421.88 315.86 395.17C307.77 371.9 305.58 322.76 311.4 295C315.41 275.89 324.23 258.75 335.59 248.01C342.13 241.82 346.2 240 353.5 240C363.34 240 369.54 243.85 373.62 252.5C377.46 260.63 376.96 270.89 371.54 295.37C365.47 322.81 364.69 328.6 365.26 341.99C366.13 362.38 369.23 370.25 376.63 370.8C380.09 371.06 381.44 370.51 385.68 367.16C392.99 361.38 396.77 355.61 406.77 335C417.9 312.06 424.11 303.6 433.15 299.08C440.79 295.27 448.15 294.93 454.69 298.09C463.49 302.35 472.2 315.7 477.13 332.5C479.37 340.1 479.48 341.84 479.32 367.38C479.23 382.17 478.66 405.12 478.05 418.38C476.03 462.01 474.41 473.84 468.78 485.79C465.39 492.99 456.6 503.01 451.59 505.39ZM680.84 484.48C677.21 487.53 671.84 487.81 667.5 485.16C661.68 481.61 654.02 471.98 649.58 462.62C642.13 446.93 639.88 438.16 631.98 394C627.11 366.71 624.75 359.48 618.7 353.17C614.39 348.69 609.97 347 602.56 347C589.6 347 581.68 351.21 566.94 365.94C556.5 376.38 555 379.28 555 389.12C554.99 427.69 540.48 452.92 523.33 444.17C518.44 441.67 511.06 434.65 507.77 429.38C498.25 414.07 495.01 392.05 496.91 355.5C499.36 308.41 505.6 284.63 520.98 263.78C534.64 245.28 548.14 247.49 554.36 269.25C556.26 275.92 560 296.93 560 300.98C560 306.28 562.35 305.72 574.47 297.59C580.73 293.38 589.35 288.32 593.61 286.35C620.02 274.15 647.28 280.12 662.5 301.44C680.28 326.37 691.97 381.9 691.99 441.64C692 465.84 688.92 477.68 680.84 484.48ZM320.07 113.5C319.34 109.16 319.23 109.82 319.23 118.5C319.24 126.7 319.33 127.74 319.95 124.19C319.33 129.94 317.93 136.2 315.85 142.27C309.56 160.67 301.12 169.39 285.71 173.4C280.02 174.88 264.8 176.15 261.5 175.42C260.4 175.18 257.02 174.48 254 173.87C247.16 172.49 236.85 167.34 231.27 162.53C228.7 160.31 225.78 156.27 223.79 152.19C220.56 145.53 220.54 145.44 220.53 130C220.51 112.63 221.42 108.3 227.95 94.8997C238.26 73.7497 252.57 63.9997 271.4 65.2897C285.73 66.2797 297.28 71.4197 306.22 80.7997C314.25 89.2097 317.8 97.1997 319.93 111.65C320.09 112.72 320.2 113.85 320.26 115.02C320.21 114.48 320.15 113.96 320.07 113.5ZM826.51 500.9C815.77 506.56 807.38 500.33 802.01 482.69C797.02 466.27 794.88 429.75 796.92 395.5C800.16 340.83 799.67 345.47 802.91 338.71C806.18 331.86 810.42 327.3 816.49 324.1C823.3 320.51 830.76 322.04 834.92 327.89C838.89 333.47 842.92 346.64 845.59 362.76C846.01 365.29 846.4 368.12 846.75 371.17C846.35 370.04 846.41 371.95 846.83 378C847.69 390.16 847.67 425.1 846.8 435.5C846.3 441.58 846.28 442.75 846.94 440.63C844.9 455.85 841.89 476.14 840.89 481C838.87 490.87 834.78 496.54 826.51 500.9ZM825.5 307.13C815.86 311.53 806.06 307.43 800.6 296.73C794.97 285.68 796.41 272.95 804.2 264.92C811.58 257.31 820.47 257.62 829.21 265.79C835.05 271.25 836.7 274.14 838.05 281.24C840.15 292.33 835.09 302.77 825.5 307.13ZM848.36 406.5C848.34 398.9 848.24 391.89 848.07 386.23C849.19 403.05 849.33 421.57 848.12 431.5C848.07 431.92 848.01 432.36 847.96 432.81C848.24 427.13 848.38 418.22 848.36 406.5ZM706.3 188.81C702.73 191.82 689.43 196.08 675.62 198.62C689.15 196.12 702.4 191.86 706.3 188.81ZM310.81 265.31C309.6 280.4 306.7 298.1 302.17 317.62C306.59 298.56 309.54 280.57 310.81 265.31ZM711.82 159.8C711.45 161.76 711.01 164.65 710.61 167.81C711.03 164.19 711.48 161.12 711.82 159.8ZM702.23 313.6C702.19 311.63 702.16 309.65 702.14 307.67L701.5 261.83L702.13 307.17C702.16 309.31 702.19 311.46 702.23 313.6ZM300.77 323.5C301.03 322.46 301.28 321.41 301.53 320.37C301.32 321.25 301.11 322.12 300.89 323C300.85 323.16 300.81 323.33 300.77 323.5Z" fill="#AA1523"/>
<path d="M-3.16002 192.75L-3.31002 176.36C-2.84002 171.34 -2.25002 166.85 -1.59002 163.84C0.479977 154.32 4.35998 146.81 10.76 139.89C18.19 131.87 22.47 129.77 32.52 129.21C40.55 128.77 53.57 130.23 56.79 131.94C57.73 132.44 61.78 134.45 65.79 136.4C80.26 143.47 97.53 157.35 112.37 173.86C118.73 180.95 133.54 199.46 137 204.65C137.82 205.89 143.07 213.11 148.65 220.7C154.23 228.29 160.4 236.87 162.35 239.77C164.29 242.66 167.35 246.26 169.13 247.76C181.58 258.24 200.88 255.77 238.74 238.85C247.71 234.85 258.4 231.06 262.48 230.45C269.08 229.46 273.91 232.7 276.16 238.54C275.82 238.75 275.66 241.07 275.85 245.43C276.11 251.63 275.68 255.37 274.15 260.48C273.29 263.34 272.78 265.56 272.79 266.24C265.92 282.4 251.5 307.53 240.1 322.5C225.14 342.14 201.1 367.37 193.79 371.11C189.4 373.35 182.82 373.5 178.14 371.46C173.33 369.37 160.07 356.11 151.68 345.01C145.03 336.21 129.74 313.49 120.64 298.9C118.52 295.49 113.16 285.46 108.72 276.6C91.11 241.4 82.28 227.96 66.87 212.9C47.45 193.91 39.47 190.34 26.13 194.65C16.97 197.6 4.04998 210.42 1.59998 218.76C1.98998 217 1.76998 216.95 0.609978 217.91C-0.230022 218.6 -1.38002 218.88 -1.96002 218.53C-2.49002 218.2 -2.86002 219.41 -2.98002 220.92C-3.00002 220.33 -3.02002 219.71 -3.02002 219.08C-3.03002 217.01 -3.23002 213.84 -3.52002 210.88C-3.47002 210.96 -3.42002 211 -3.37002 211C-3.17002 211 -3.07002 202.79 -3.16002 192.75ZM116.07 106.39C104.34 111.65 85.46 110.32 69.59 103.12C57.63 97.6896 49.38 89.1796 46.32 79.1196C43.62 70.2496 44.94 52.8296 49.09 42.4996C58.81 18.3296 77.03 1.88958 95.85 0.309582C108.85 -0.780418 117.95 2.19959 129.93 11.4696C142.21 20.9596 147.95 32.7696 147.99 48.6296C148.04 70.2796 132.05 99.2196 116.07 106.39ZM1.00998 220.98C0.0599754 223.89 -1.55002 226.12 -2.34002 225.33C-1.57002 226.1 0.0299754 223.91 1.00998 220.98ZM-4.35002 202.01C-4.38002 201.23 -4.39002 200.42 -4.40002 199.56C-4.39002 200.4 -4.37002 201.22 -4.35002 202.01Z" fill="#F5CC42"/>
</g>
<defs>
<clipPath id="clip0_4634_2">
<rect width="1133" height="510" fill="white"/>
</clipPath>
</defs>
</svg>

