<svg width="507" height="795" viewBox="0 0 507 795" fill="none" xmlns="http://www.w3.org/2000/svg">
<g clip-path="url(#clip0_4634_8)">
<path d="M335.95 792.55C326.89 795 313.58 795.27 305.5 793.17C294.82 790.4 278.43 783.55 258 773.34C236.84 762.76 222.82 753.84 208.5 741.85C203 737.24 190.62 727.36 181 719.88C124.34 675.87 81.51 623.23 50.52 559.48C18.2 493 -1.88998 404.3 6.99002 367.26C10.29 353.48 20.45 335.77 28.88 329.09C41.97 318.73 60.7 315.75 76.9 321.46C89.9 326.05 109.12 345.16 129.74 374C137.91 385.43 144.83 396.98 157.07 419.57C183.34 468.08 200.35 495.66 223.02 526.5C257.33 573.17 264.16 580.62 280.47 589.16C287.13 592.65 289.63 593.41 295.73 593.8C302.36 594.22 303.59 593.98 309.26 591.19C316.36 587.69 336.96 570.19 352.71 554.28C385.53 521.13 413.52 478.05 433.95 429.27C441.44 411.39 443.22 403.84 443.33 389.5C443.44 375.35 441.72 368.91 436.21 362.81C432.19 358.36 428.05 356.34 421.03 355.41C413.52 354.41 404.76 356.44 386.06 363.51C376.6 367.08 355.51 374.81 339.19 380.7C309.92 391.25 309.37 391.4 300.5 391.45C292.18 391.5 290.93 391.23 284 387.91C273.57 382.93 262.98 372.81 254.6 359.83L252.87 357.16L258.19 353.16C265.63 347.56 312.75 321.11 336.5 309.2C350.41 302.22 358.77 299.46 372 297.45C402.02 292.9 439.17 299.99 460.86 314.41C477.8 325.67 487.32 341.68 491.59 366.1C495.01 385.64 492.1 427.11 484.46 467.5C474.48 520.29 465.6 548.18 425.74 652C418.87 669.88 411.34 689.67 409 696C396.75 729.03 389.66 742.38 372.23 765.24C359.9 781.41 350.23 788.69 335.95 792.55ZM445.21 274.43C419.9 278.53 401.71 276.07 381.83 265.87C374.97 262.34 369.76 258.72 364.55 253.85C353.38 243.42 350.07 235.48 347.91 213.92C344.48 179.69 357.04 142.8 379.91 119.9C393.44 106.36 406.42 101 425.64 101C462.05 101 491.17 121.25 501.84 154C504.45 162 507.2 179.43 507.13 187.5C507.01 201.5 499.85 227.79 492.17 242.47C487.98 250.47 479.07 260.46 472.18 264.88C465.46 269.2 455.31 272.79 445.21 274.43Z" fill="#B62525"/>
<path d="M309.54 580C300.27 584.45 291.5 584.29 281.93 579.5C278.09 577.58 272.38 572.64 262.45 562.64C247.81 547.9 243.71 542.78 224.25 514.82C200.02 480.01 185.95 456.01 165.73 415C151.5 386.15 138.94 366.18 123.98 348.65C111.81 334.38 85.67 311.04 77.02 306.73C71 303.73 69.81 303.5 60.46 303.5C50.82 303.5 50.07 303.66 42.72 307.3C37.34 309.96 32.49 313.5 26.53 319.14C17.04 328.12 12.19 335.34 8.09996 346.56C6.58996 350.72 4.95996 354.21 4.48996 354.31C3.06996 354.62 2.20996 349.31 1.07996 333.23C-1.04004 303.16 0.129953 266.51 3.66995 252C8.51995 232.13 23.6899 211.85 39.2299 204.47C56.92 196.07 81.5 198.25 106.5 210.44C135.83 224.75 169.1 253.17 196.13 287C210.14 304.53 240.49 345.7 253.4 364.69C268.1 386.32 276.27 392.67 292.66 395.22C309.73 397.87 329.66 392.4 380 371.23C403.67 361.28 408.39 359.78 417.5 359.29C428 358.73 431.33 360.43 435.48 368.5C438.11 373.6 438.51 375.51 438.85 384.82C439.34 398.03 438.21 403.14 431.31 419C417.39 450.98 396.12 485.83 372.16 515.9C351.94 541.28 318.15 575.88 309.54 580ZM178.3 171.51C170.35 173.58 152.74 173.33 141.63 170.99C107.52 163.8 87.2199 149.83 78.2599 127.38C75.6499 120.82 75.52 119.72 75.57 104C75.62 89.2102 75.9099 86.4702 78.3699 77.5002C83.7499 57.9102 93.68 40.5002 107.95 25.6602C118.07 15.1402 129.77 7.08017 141.18 2.77017C148.91 -0.159831 150.43 -0.389837 162.5 -0.439837C176.63 -0.509837 180.78 0.420169 192.5 6.27017C201.4 10.7102 206.62 14.5202 215.36 22.9302C231.77 38.7402 238.01 53.1902 238 75.4302C237.99 99.2602 230.96 119.96 215.25 142.42C203.71 158.91 192.36 167.85 178.3 171.51Z" fill="#FEC94F"/>
</g>
<defs>
<clipPath id="clip0_4634_8">
<rect width="507" height="795" fill="white"/>
</clipPath>
</defs>
</svg>
