<svg width="3239" height="1809" viewBox="0 0 3239 1809" fill="none" xmlns="http://www.w3.org/2000/svg">
<g clip-path="url(#clip0_4642_676)">
<path d="M1047.29 1170.32C1051.9 1179.26 1058.25 1187.19 1065.55 1194.45C1099.72 1231.45 1138.57 1251.43 1163.58 1270.47C1171.91 1277.75 1180.09 1286.56 1187.71 1297.84C1224.63 1352.8 1219.23 1382.44 1247.19 1427.44C1252.33 1436.15 1259.37 1445.13 1269.47 1454.14C1288.03 1471.16 1306.8 1485.73 1333.07 1513.41C1368.74 1555.55 1385.1 1581.8 1407.12 1595.05C1410.43 1597.14 1413.63 1598.84 1416.72 1600.11C1452.17 1613.44 1432.39 1648.63 1474.5 1665.32C1475.12 1665.58 1475.75 1665.85 1476.37 1666.12C1544.47 1703.18 1545.61 1728.75 1569.12 1752.71C1571.66 1755.4 1574.8 1758.46 1577.93 1761.57C1612.84 1796.44 1738.24 1878.35 1793 1890.78C1802.52 1892.95 1811.69 1896.38 1820.51 1900.69C1820.81 1900.83 1821.67 1901.37 1821.97 1901.53C1861.83 1923.3 1892.04 1962.82 1917.64 1976.96C1919.98 1978.28 1922.26 1979.57 1924.51 1980.89C1924.69 1980.94 1925.21 1981.17 1925.39 1981.23C1933.15 1986.45 1937.81 1992.07 1941.15 1996.76C1943.01 1999.4 1942.75 2002.22 1941.4 2004.26C1941.39 2004.26 1941.39 2004.26 1941.39 2004.26C1939.7 2006.8 1936.26 2008.09 1932.96 2006.39C1928.33 2004.03 1923.04 2001.72 1917.2 2000.46L1917.91 2000.73C1900.99 1998.48 1878.64 1993.72 1853.94 1989.3C1818.71 1982.86 1804.59 1972.26 1786.83 1959.07L1788.16 1959.84C1772.85 1949.45 1754.72 1937.06 1719.38 1923.11C1645.53 1893.73 1594.23 1888.34 1520.44 1833.65C1516.13 1830.51 1511.97 1827.17 1507.85 1823.55C1462.79 1780.75 1437.3 1759.58 1421.46 1763.21C1385.07 1751.13 1352.77 1731.51 1320.37 1693.06C1312.84 1684.3 1305.31 1674.38 1298.02 1663.17C1277.71 1631.83 1262.76 1609.41 1249.27 1597.44C1219.4 1572.2 1170.83 1560.38 1123.9 1517.31C1108.02 1504.21 1091.12 1488.22 1072.84 1467.45C1053.4 1445.21 1035.08 1423.21 1013.43 1394.92C980.381 1351.24 962.196 1308.05 950.819 1288.25C931.885 1259.64 903.322 1219.22 887.781 1183.98C877.448 1161.21 868.006 1141.33 859.178 1125.79C847.166 1104.63 833.914 1081.34 820.267 1055.82C796.066 1008.71 776.556 970.901 748.909 923.67C735.862 901.206 723.764 876.896 713.717 853.08C703.834 829.568 693.642 807.71 687.294 801.314C653.26 760.301 634.358 721.025 615.216 689.749C585.445 641.985 545.514 586.521 516.884 531.752C514 526.3 511.084 520.792 508.026 515.07C481.268 466.17 451.234 404.333 423.487 361.526C381.541 302.141 334.735 245.499 307.439 211.968C299.996 202.88 293.27 194.934 287.042 187.935C249.927 149.397 225.896 135.365 163.903 107.867C151.746 102.619 138.538 96.1612 125.088 88.9921C89.6366 70.117 55.8497 42.8786 27.6875 15.6268C7.49058 -3.13381 16.9569 -10.9054 44.4201 -2.36143C83.7823 10.535 109.25 31.8256 133.398 29.4807C142.218 28.6519 149.962 27.785 156.888 27.0935C190.21 25.503 210.271 30.9451 241.802 63.7715C280.012 104.397 319.201 86.609 348.536 115.177C348.595 115.241 348.655 115.305 348.714 115.37C370.609 140.839 358.55 152.778 479.402 254.603C490.784 264.474 501.618 274.066 512.441 284.492C575.868 350.791 604.115 393.265 633.75 429.419C651.819 452.45 666.485 471.608 679.253 488.154C699.068 514.355 723.968 557.568 752.127 613.719C770.292 652.264 786.008 687.643 802.287 704.388C808.718 711.656 814.399 719.048 819.315 725.917C847.507 767.606 860.831 801.868 885.741 840.748C915.204 886.761 944.96 947.742 964.277 985.394C978.263 1011.58 991.781 1034.11 1003.05 1049.7C1020.45 1073.76 1028.21 1089.99 1032.13 1104.54C1036.33 1123.1 1030.53 1137.27 1047.29 1170.32Z" fill="#C98633"/>
<path d="M1880.85 703.55C1891.94 692.2 1896.84 676.906 1900.51 659.047C1910.37 611.58 1938.78 547.879 1953.28 536.591C1953.35 536.544 1953.42 536.5 1953.49 536.458C1992.25 490.462 2021.87 488.228 2043.67 460.715C2050.99 450.438 2058.21 438.255 2065.08 422.737C2083.16 382.164 2105.47 347.287 2119.01 316.876C2131.44 288.13 2141.98 265.061 2142.48 248.675C2143.2 218.454 2167.65 221.13 2179.07 197.141C2181.95 190.254 2184.29 182.088 2185.66 172.001C2192.58 123.322 2204.36 99.9919 2220.13 67.9186C2222 63.6477 2223.99 59.3818 2226.09 55.0598C2235.04 36.281 2248.5 1.69312 2257.13 -35.2286C2266.62 -77.3434 2270.51 -125.434 2267.93 -156.734C2267.94 -157.217 2268.2 -158.636 2268.25 -159.116C2268.24 -164.314 2267.9 -169.027 2267.26 -173.193C2263.93 -195.014 2267.55 -217.334 2274.44 -239.616L2274.25 -237.513C2280.94 -262.987 2289.2 -289.493 2290.96 -308.669C2291.93 -319.34 2293.59 -327.939 2295.55 -334.674C2296.37 -337.509 2298.66 -339.118 2301.08 -339.443C2301.08 -339.443 2301.09 -339.444 2301.09 -339.444C2304.11 -339.848 2307.35 -338.275 2308.18 -334.795C2312.18 -317.801 2319.95 -292.99 2331.32 -261.397C2334.98 -251.157 2337.01 -242.185 2337.94 -234.076C2337.89 -233.656 2337.84 -232.384 2337.76 -231.968C2339.57 -203.588 2330.5 -188.577 2325.06 -148.97L2325.41 -151.611C2324.93 -142.721 2324.89 -132.491 2325.47 -120.42C2327.11 -84.9945 2331.34 -55.5533 2331.54 -23.8269C2331.68 11.3937 2326.07 45.9647 2313.29 84.4673C2312.2 88.1323 2311.01 91.8083 2309.72 95.5155C2288.43 153.558 2293.69 186.81 2291.45 226.679C2287.98 259.906 2273.5 295.412 2245.81 332.652C2239.83 340.873 2234.84 348.594 2230.64 356.06C2188.23 431.723 2195.09 470.865 2178.33 535.823C2170.73 558.917 2159.16 581.603 2145.94 602.78C2136.54 617.839 2127.07 631.736 2117.4 645.734C2074.17 702.646 2052.2 712.183 2037.62 732.666C2016.98 762.319 1993.39 803.485 1954.9 838.035C1936.12 853.361 1918.3 870.585 1906.36 884.564C1882.91 912.088 1856.2 945.196 1826.15 980.501C1799.32 1011.61 1776.98 1034.72 1754.56 1063.17C1744.03 1076.51 1734.84 1086.72 1725.2 1097.39C1697.03 1128.38 1670.23 1164.87 1650.99 1200.32C1628.34 1240.53 1604.28 1271.99 1582.66 1301.56C1561.2 1330.57 1539.15 1358.71 1517.06 1383.83C1510.84 1390.92 1504.55 1398.25 1498.57 1405.51C1474.35 1436.18 1442.34 1476.15 1407.73 1506.83C1376.12 1535.77 1343.96 1560.18 1325.1 1581.07C1297.75 1612.71 1277.59 1630.49 1265.43 1647.54C1256.38 1659.52 1250.07 1670.73 1245.22 1681.27C1227.42 1721.73 1221.36 1746.88 1204.98 1804.2C1203.29 1810.05 1201.31 1816.09 1199 1822.35C1185.42 1858.85 1168.67 1900.61 1154.4 1942.29C1146.22 1966.65 1135.15 1961.98 1130.96 1935.31C1125.39 1895.73 1138.88 1865.18 1132.04 1841.98C1126.35 1821.77 1123.31 1805.97 1124.2 1791.42C1124.43 1774.18 1130.83 1759.73 1147.71 1738.35C1171.95 1707.09 1155.53 1680.26 1156.62 1655.77C1157.11 1649.61 1158.46 1643.69 1161.26 1637.91C1168.34 1623.67 1176.34 1617.22 1188.71 1601.68C1200.22 1586.62 1222.49 1561.01 1243.06 1526.41C1251.85 1511.37 1263.06 1495.35 1274.68 1479.38C1290.29 1458.01 1303.25 1440.85 1314.92 1424.4C1341.34 1387.22 1355.55 1356.74 1371.68 1326.35C1389.39 1293.58 1403.82 1270.92 1415.97 1251.17C1424.33 1237.69 1437.02 1221.51 1452.07 1203.73C1474.7 1176.76 1502.58 1148.1 1519.93 1122.29C1537.91 1094.59 1555.77 1070.3 1570.67 1047.02C1584.96 1024.43 1607.89 994.714 1626.22 969.473C1650.14 934.816 1683.79 899.18 1706.35 873.298C1739.51 834.994 1769.43 799.452 1786.16 774.843C1807.25 743.848 1822.52 732.454 1840.25 723.517C1849.22 723.081 1862.72 721.855 1880.85 703.55Z" fill="#C98633"/>
<path d="M2708.92 585.389C2776.78 599.052 2830.16 540.467 2913.23 547.636C2926.13 548.739 2937.34 550.394 2947.45 552.38C2997.33 562.349 3018.84 583.837 3091.06 563.206C3119.33 554.717 3149.74 547.292 3180.16 541.571C3235.49 531.712 3283.23 520.434 3309.64 502.74C3328.15 490.189 3342.96 491.587 3358.84 494.236C3371.95 498.241 3388.38 502.408 3414.12 486.839C3450.39 464.624 3481.66 449.853 3521.62 443.435C3531.16 442.588 3540.83 441.509 3551.98 438.943C3577.16 435.297 3632.3 393.495 3682.07 353.32C3716.24 326.363 3740.91 293.975 3749.08 271.399C3750.82 266.74 3752.77 262.191 3754.91 257.723C3776.25 217.396 3812.29 198.061 3835.62 177.412L3834.11 179.964C3840.6 174.124 3845.95 162.968 3849.98 153.298C3850.59 151.841 3851.17 150.427 3851.71 149.053C3856.44 137.25 3860.79 128.507 3864.7 121.437C3866.36 118.482 3869.02 117.355 3871.44 117.698C3871.44 117.698 3871.44 117.698 3871.45 117.698C3874.46 118.137 3877.11 120.877 3876.82 125.112C3876.26 134.327 3875.3 146.032 3874.8 158.8C3874.27 169.537 3875.28 181.869 3870.99 198.601C3870.72 199.065 3869.97 200.47 3869.63 200.892C3867.38 206.898 3864.93 213.091 3862.36 219.431C3843.2 264.374 3826.34 271.748 3808.42 294.071C3797.27 308.308 3784.22 326.394 3764.35 353.204C3750.48 371.793 3737.14 388.201 3723.95 403.326C3683.42 445.897 3666.3 495.813 3564.27 531.97C3559.72 533.193 3555.33 534.307 3551.05 535.351C3489.15 549.221 3473.36 595.94 3391.12 621.128C3370.97 626.845 3345.19 633.48 3304.9 638.597C3264.43 643.574 3233.67 649.713 3208.31 657.339C3141.01 676.933 3109.3 728.231 2984.7 741.995C2973.42 743.095 2961.96 743.807 2950.36 744.168C2843.84 747.545 2723.77 733.766 2631.45 723.787C2602.53 720.331 2576.5 718.919 2555.11 719.52C2511.92 718.882 2460.59 730.073 2380.38 703.888C2327.28 684.58 2267.59 664.937 2203.83 635.542C2190.58 629.286 2176.91 623.21 2160.11 614.36C2126.99 596.432 2087.92 577.301 2049.55 552.413C2028.53 539.367 1971.5 518.945 1926.89 484.769C1896.12 461.749 1864.74 442.07 1830.38 418.196C1828.12 416.612 1825.83 415.013 1823.49 413.384C1773.53 379.319 1725.48 335.823 1684.35 283.158C1654.56 244.438 1638.84 208.046 1621.09 182.405C1592.4 141.841 1569.36 102.443 1553.67 75.7747C1551.65 72.4387 1549.72 69.2266 1547.86 66.1471C1524.14 26.9393 1508.6 2.75227 1491.65 -19.7309C1474.49 -43.0031 1455.84 -64.1792 1431.26 -104.402C1423.71 -117.233 1416.56 -132.511 1412.02 -150.534C1401.66 -193.399 1397.18 -242.206 1401.14 -286.709C1404.36 -317.48 1415.9 -311.774 1425.68 -283.803C1440.39 -242.744 1442.96 -206.86 1460.99 -188.4C1468.54 -180.705 1475.19 -174.068 1480.92 -168.244C1501.74 -152.29 1510.57 -140.856 1521.74 -101.095C1526.85 -84.0129 1536.35 -72.7987 1546.52 -65.102C1567.92 -48.2323 1591.49 -42.7573 1603.39 -23.8883C1611.98 -10.2203 1612.68 -0.182126 1624 20.1979C1636.04 40.9333 1653.22 69.4794 1699.35 115.214C1707.16 123.155 1715.04 131.761 1722.89 140.623C1745.43 166.44 1761.45 185.672 1776.7 198.711C1822.6 238.728 1866.3 263.632 1898.51 278.797C1922.29 290.216 1943.39 300.676 1962.38 310.877C1979.71 320.139 2001.8 335.237 2024.72 354.172C2048.16 375.796 2077.98 389.139 2135.48 426.559C2158.48 443.754 2183.49 457.825 2210.35 469.696C2216.44 472.386 2222.97 475.337 2229.93 478.539C2273.13 496.85 2362.41 525.708 2438.31 553.932C2464.38 563.847 2522.21 560.782 2554.98 556.771C2595.29 551.718 2618.24 554.765 2637.46 560.959C2656.69 567.794 2673.18 578.082 2708.92 585.389Z" fill="#82251C"/>
<path d="M2122.77 1077.11C2135.25 1081.09 2147.12 1083.3 2158.71 1084.07C2199.68 1087.01 2240.17 1071.36 2297.91 1072.98C2323.23 1072.69 2346.05 1073.53 2373.09 1079.52C2391.03 1083.51 2406.77 1087.63 2420.82 1091.94C2484.7 1109.73 2504.68 1134.24 2573.66 1141.84C2582.56 1142.8 2591.96 1143.85 2601.93 1144.99C2649.62 1150.35 2695.19 1165.21 2730.71 1177.04C2812.24 1207.69 2851.51 1240.13 2886.42 1247.47C2909.41 1252.83 2919.6 1262.9 2929.9 1274.63C2944.9 1290.5 2958 1308.74 2996.4 1325.6C3056.27 1352.15 3090.79 1377.04 3130.49 1412.62C3137.15 1418.39 3143.81 1424.69 3150.32 1431.5C3176.28 1457.36 3216.34 1506.44 3260.63 1553.3C3310.29 1607.58 3346.62 1665.39 3375.82 1689.86C3382.82 1696.13 3389.18 1702.65 3395.37 1709.85C3395.86 1710.44 3397.03 1712.38 3397.45 1713.02C3434.28 1766.3 3449.2 1836.53 3465.54 1876.01C3467.16 1879.85 3468.63 1883.49 3469.97 1886.96C3470.07 1887.1 3470.29 1887.54 3470.37 1887.68C3473.76 1898.77 3473.99 1905.23 3476.23 1911.25C3477.41 1914.67 3476.96 1917.6 3475.22 1919.35C3475.22 1919.35 3475.22 1919.35 3475.22 1919.35C3473.11 1921.49 3468.63 1921.54 3464.88 1917C3459.9 1911.09 3456.2 1902.99 3452.04 1896.92L3452.37 1897.5C3438.41 1879.62 3420.74 1857.37 3398.42 1834.16C3363.62 1797.93 3355.49 1777.04 3340.28 1746.14L3342.17 1749.03C3330.03 1730.05 3314.68 1707.29 3286.15 1675.31C3258.66 1644.58 3234.88 1621.51 3210.48 1604.27C3166.01 1572.29 3125.79 1531.63 3079.91 1493.11C3077.56 1491.29 3075.03 1489.33 3072.63 1487.43C2997.23 1428.63 2945.08 1430.64 2870.79 1393C2843.35 1379.89 2813 1361.26 2777.69 1334.91C2746.63 1311.64 2717.87 1295.67 2700.33 1291.2C2641.18 1275.3 2602.74 1279.46 2556.2 1286.11C2519.27 1289.97 2472.34 1287.9 2424.75 1282.55C2417.15 1281.8 2409.95 1281.17 2403.38 1280.77C2358.62 1277.88 2303.63 1269.35 2256.28 1255.69C2225.18 1246.47 2182.02 1239.75 2138.07 1230.48C2076.41 1216.4 2027.79 1204.89 1981.89 1197.73C1956.99 1193.8 1935.9 1190.16 1918.01 1187.97C1867.63 1181.94 1808.98 1173.64 1753.81 1171.06C1702.96 1169.26 1649.44 1159.35 1603.38 1150.86C1581.9 1146.54 1551.77 1145.68 1512.74 1138.32C1493.59 1134.56 1471.87 1129.01 1450.08 1119.6C1432.9 1111.66 1375.33 1101.66 1329.96 1084.67C1282.58 1067.85 1236.98 1045 1195.04 1018.63C1143.5 987.341 1093.41 940.451 1060.12 899.814C1050.52 888.551 1040.89 876.916 1031.4 864.538C1013.19 839.648 990.953 814.046 973.429 767.083C970.072 747.989 944.107 711.28 927.975 666.052C910.385 613.667 890.119 560.423 873.78 510.356C853.79 449.396 841.234 395.447 834.078 356.051C831.642 342.451 829.657 330.008 828.096 318.176C818.275 237.425 805.377 208.351 783.256 112.787C781.819 105.531 780.613 97.8517 779.773 89.774C773.513 29.4899 779.554 -44.9527 795.97 -107.751C805.499 -143.395 815.761 -134.509 819.324 -98.3944C824.694 -45.6213 819.406 -2.52355 833.287 24.0951C846.226 48.7963 855.905 66.1988 861.548 83.9305C867.957 101.92 869.885 121.807 869.576 157.597C869.907 225.534 914.438 248.483 920.061 290.44C920.355 292.588 920.577 294.643 920.74 296.633C923.523 323.779 906.488 341.526 967.491 470.749C973.664 483.146 980.642 496.529 988.558 511.075C1008.92 548.39 1028.2 583.292 1044.79 615.742C1058.55 642.275 1084.77 666.855 1106.61 713.783C1117.44 732.407 1152.82 766.738 1176.8 789.742C1184.25 796.929 1190.93 803.337 1197.13 809.079C1219.1 829.557 1244.58 856.691 1282.38 884.282C1337.41 925.105 1395.68 954.634 1470.36 967.236C1480.64 969.53 1492.82 972.281 1508.79 978.445C1527.01 986.233 1563.78 984.814 1628.88 993.015C1678.76 1000.89 1722.16 1009.06 1763.54 1010.64C1841.28 1015.5 1901.76 1025.7 1941.4 1026.91C1967.54 1028 1985.97 1029.95 2000.22 1032.55C2046.82 1040.85 2061.94 1057.95 2122.77 1077.11Z" fill="#82251C"/>
<path d="M2670.18 1627.01C2644.77 1651.35 2662.99 1692.79 2653.99 1730.23C2654.37 1734.62 2652.49 1740.77 2647.97 1747.41C2624.34 1784.46 2592.77 1784.31 2579.75 1842.34C2579.44 1843.68 2579.12 1845.02 2578.78 1846.36C2566.43 1898.19 2533.32 1946.87 2539.68 1973.52C2542.31 1984.56 2537.74 1990.01 2531.34 1995.18L2532.71 1985.2C2524.66 1995 2512.67 2004.37 2516.15 2027.14C2521.93 2065.54 2514.9 2087.46 2500 2118.71C2495.49 2128.16 2490.7 2143.73 2486.66 2161.95L2486.72 2160.59C2479.47 2202.72 2477.44 2259.17 2488.05 2284.48C2503.28 2320.77 2476.71 2362.18 2470.4 2387.11C2468.44 2394.88 2465.75 2400.99 2462.96 2405.67C2461.77 2407.65 2459.29 2408.57 2456.85 2408.57C2456.84 2408.57 2456.84 2408.57 2456.84 2408.57C2453.79 2408.57 2450.8 2407.15 2450.41 2404.6C2448.55 2392.22 2443.61 2373.71 2432.57 2351.85C2412 2311.07 2434.73 2306.64 2424.33 2251.49C2417.8 2216.55 2407 2190.42 2403.97 2158.82C2404.03 2158.3 2404 2156.73 2404.09 2156.21C2403.22 2138.05 2405 2118.34 2411.91 2094.91C2426.27 2046.19 2397.31 2024.02 2399.11 1978.05C2399.49 1975.67 2399.96 1968.55 2400.72 1966.26C2403.88 1950.97 2410.69 1933.76 2423.81 1913.98C2456.94 1864.58 2452.09 1836.9 2448.26 1800.19C2445.07 1777.2 2440.94 1751.97 2451.01 1713.98C2457.46 1691.14 2465.42 1668.34 2483.88 1637.17C2516.01 1587.71 2555.73 1539.64 2583.68 1500.6C2591.18 1490.05 2597.73 1481.09 2602.84 1473.15C2635.75 1421.71 2683.08 1361.89 2741.77 1313.27C2744.14 1311.22 2746.55 1309.21 2748.95 1307.28C2793.46 1271.76 2837.63 1236.92 2880.81 1205.45C2911.67 1183.1 2943.96 1163.78 2975.67 1150.92C3002.3 1140.07 3030.97 1128.2 3058.03 1114.55C3115.78 1083.58 3175.48 1060.74 3208.8 1047.49C3212.12 1045.96 3215.3 1044.6 3218.29 1043.42C3278.15 1022.84 3290.79 1024.01 3339.42 997.084C3339.61 996.982 3339.81 996.881 3340 996.779C3366.56 982.682 3408.65 968.751 3448.77 973.549C3468.89 976.382 3466.47 987.938 3451.19 997.53C3428.89 1011.96 3407.23 1015.32 3399.33 1032.8C3389.6 1054.68 3382.99 1068.48 3369.33 1075.29C3361.71 1079.16 3351.96 1080.44 3338.07 1079.51C3300.79 1077.25 3301.26 1116.3 3285.42 1119.87C3277.47 1121.82 3270.84 1118.19 3259.61 1121.21C3242.38 1128.57 3219.56 1140.45 3181.81 1174.45C3163.67 1190.94 3148.23 1205.52 3135.21 1218.54C3084.26 1265.86 3050.57 1287.4 3027.79 1305.43C3014.62 1315.55 2993.25 1325.92 2970.05 1338.15C2937.24 1355.72 2901.38 1374.5 2878.97 1397.23C2870.91 1405.39 2861.14 1414.7 2852.39 1424.2C2806.17 1472.15 2747.55 1533.69 2735.88 1566.88C2732.27 1576.22 2729.09 1582.46 2725.74 1586.9C2712.54 1605.27 2694.51 1603.99 2670.18 1627.01Z" fill="#305568"/>
<path d="M1549.5 1360.82C1544.47 1360.67 1539.51 1360.66 1534.58 1360.76C1453.02 1361.88 1389.98 1418.35 1289.14 1417.93C1286.04 1417.91 1282.9 1417.88 1279.96 1417.81C1204.36 1416.28 1176.77 1399.11 1124.26 1393.23C1101.69 1390.47 1074.81 1389.43 1038.88 1391.64C917.021 1399.11 795.265 1377.61 740.904 1389.88C727.674 1392.86 717.256 1392.84 708.194 1391.22C678.177 1385.78 661.703 1366.22 599.89 1366.91C544.163 1367.32 499.96 1353.5 466.189 1340.16C448.218 1333.49 429.978 1325.78 409.804 1316.78C393.26 1309.38 367.246 1299.95 336.237 1289.35C298.751 1276.33 252.18 1264.38 207.651 1255.39C160.123 1246.2 120.561 1224.85 93.5181 1219.14C85.9725 1217.28 78.9737 1215.77 72.7263 1214.67C37.5793 1208.24 1.74678 1192.51 -29.0662 1163.98L-21.6868 1168.18C-59.1816 1147.15 -88.3525 1121.89 -112.18 1107.6C-112.424 1107.51 -113.107 1107.14 -113.341 1107.02C-113.58 1106.85 -113.818 1106.67 -114.055 1106.5C-127.907 1095.62 -135.803 1086.94 -142.818 1079.5C-145.672 1076.37 -146.022 1073.27 -144.77 1071.17C-144.769 1071.17 -144.768 1071.17 -144.768 1071.16C-143.181 1068.57 -139.131 1067.49 -134.378 1069.96C-125.208 1074.58 -113.416 1081.17 -101.451 1086.1L-102.406 1085.62C-82.0556 1091.49 -57.9871 1098.25 -31.2143 1103.1C-18.3662 1105.41 -7.64549 1107.67 1.67872 1109.91C3.28117 1110.65 7.72911 1112.97 9.07486 1114.12C42.342 1129.78 59.7714 1145.74 113.823 1165.06C127.727 1169.91 142.91 1175.88 159.49 1181.16C182.148 1188.4 201.169 1191.64 219.624 1192.2C266.169 1194.98 308.33 1196.99 357.295 1207.48C388.83 1214.23 423.868 1223.4 464.601 1237.72C473.1 1240.71 481.243 1243.29 489.07 1245.52C578.382 1273.65 611.089 1247.91 709.581 1252.77C735.841 1253.78 766.185 1256.9 802.436 1263.29C962.022 1291.19 1001.15 1252.27 1122.64 1234C1144.57 1230.65 1169.06 1227.96 1196.98 1226.15C1220.67 1224.59 1242.22 1223.7 1265.55 1221.96C1350.82 1216.22 1441.34 1216.16 1522.1 1215.29C1576.01 1215.4 1626.51 1206.05 1682.42 1199.75C1693.25 1198.96 1705.22 1196.53 1716.17 1193.48C1741.8 1186.7 1769.46 1175.28 1813.47 1165.51C1863.22 1154.16 1926.19 1129.98 1984.79 1100.04C2023.12 1080.42 2061.09 1064.19 2098.7 1048.29C2149.16 1026.93 2204.52 999.038 2239.51 968.21C2289.56 923.419 2342.88 884.503 2367.02 848.267C2400.89 801.367 2430.45 764.919 2458.15 725.296C2463.44 717.862 2468.76 710.128 2474.12 702.101C2499.43 665.467 2521.12 615.14 2549.05 558.505C2568.95 520.392 2587.47 478.155 2598.15 442.193C2624.29 367.163 2635.08 317.214 2640.18 267.821C2641.04 260.113 2641.87 252.678 2642.68 245.842C2656.03 130.302 2659.94 101.584 2650.61 -8.83379C2649.86 -16.7505 2649.18 -24.9379 2648.51 -33.3415C2643.61 -94.1079 2644.96 -169.116 2649.88 -234.848C2652.3 -272.766 2664.39 -266.564 2674.53 -229.141C2688.79 -174.235 2685.98 -128.176 2701.22 -100.396C2714.77 -75.3961 2724.45 -56.8298 2729.96 -37.2583C2736.73 -12.143 2736.53 13.8302 2728.1 53.9928C2712.6 126.521 2747.66 160.689 2743.06 202.778C2740.65 224.467 2733.81 234.8 2729.64 269.046C2725.71 299.846 2723.59 368.663 2704.81 462.366C2704.71 463.204 2704.6 464.046 2704.49 464.894C2695.92 523.288 2682.14 567.153 2667.73 608.898C2648.58 668.029 2631.29 727.25 2606.77 775.532C2586.94 815.745 2567.39 848.656 2550.27 875.372C2537.4 895.653 2518.89 919.005 2499.67 943.473C2452.23 1006.27 2385.98 1042.97 2337.11 1084.04C2302.39 1111.98 2269.75 1130.44 2240.16 1148.49C2192.35 1177.73 2122.3 1209.04 2059.4 1242.05C1988.64 1279.38 1914.88 1307.34 1842.18 1323.22C1817.08 1329.13 1782.29 1342.4 1756.1 1351.26C1737.37 1357.72 1719.48 1362.17 1702.22 1364.39C1650.43 1372.92 1627.89 1362.42 1549.5 1360.82Z" fill="#305568"/>
<path d="M309.893 1472.61C309.353 1474.85 308.986 1477.07 308.775 1479.27C304.63 1519.79 357.561 1552.86 348.462 1605.3C337.994 1660.51 307.84 1664.66 306.591 1729.84C306.387 1734.12 306.032 1738.4 305.378 1743.19C304.521 1748.47 304.448 1751.61 301.01 1762.88C285.095 1813.1 254.295 1853.44 256.312 1879.32C257.542 1895.2 247.421 1899.42 236.911 1905.74C227.529 1911.8 218.114 1919.16 213.264 1938.25C202.561 1978.33 182.752 1998.28 154.163 2016.42C153.159 2016.96 152.132 2017.53 151.082 2018.11C122.429 2031.94 64.2057 2114.48 61.6004 2153.85C60.6515 2165.14 56.4371 2175.27 50.2787 2184.54C50.2751 2184.55 50.2596 2184.57 50.2559 2184.58C39.3209 2200.81 21.7825 2215.48 7.38982 2227.18C2.93864 2230.82 -1.23299 2234.13 -4.81991 2237.19C-11.5447 2242.96 -18.2111 2245.95 -23.5029 2247.33C-25.7639 2247.92 -28.1579 2246.8 -29.8903 2245.08C-29.8914 2245.08 -29.8925 2245.07 -29.8937 2245.07C-32.0517 2242.92 -33.144 2239.79 -31.6778 2237.75C-26.966 2231.34 -22.7182 2222.3 -20.7072 2209.96C-19.6041 2203.38 -18.9481 2195.83 -18.832 2187.51C-18.6124 2170.63 -15.438 2160.86 -10.1345 2152.01L-10.1564 2152.05C-2.15144 2138.8 10.0779 2128.61 20.4897 2095.01C36.7999 2044.79 34.9926 2005.6 80.7088 1958.64C83.6442 1955.93 86.7261 1953.23 89.9759 1950.52C123.802 1921.25 106.981 1893.51 117.732 1858.58C122.288 1843.67 131.029 1827.04 147.81 1807.18C176.999 1772.5 179.944 1747.09 177.057 1721.65C176.308 1722.73 175.844 1723.06 175.46 1723C175.065 1722.98 174.743 1722.67 174.414 1722.32C173.777 1721.56 173.172 1720.48 172.571 1719.21C171.344 1716.81 170.104 1713.85 168.802 1710.89C166.216 1704.84 163.501 1698.18 160.993 1690.92C155.97 1676.35 151.834 1659.29 151.013 1637.19C149.307 1590.04 157.65 1535.36 162.947 1486.48C167.233 1448.6 169.341 1414.27 165.3 1391.49C159.435 1357.8 149.126 1316.61 141.704 1268.3C139.128 1251.08 133.883 1229.26 128.382 1203.7C124.168 1183.06 115.989 1162.21 108.275 1129.88C98.9439 1092.98 77.1557 1044.37 62.6879 1011.81C54.5389 995.187 49.8104 981.332 45.9159 967.694C37.4198 937.134 28.2541 903.204 18.3671 880.842C-8.99933 830.188 -35.5015 780.811 -53.1203 758.674C-55.0175 756.348 -56.9456 754.122 -58.8222 752.019C-95.4632 713.82 -110.954 708.415 -160.805 678.704C-166.479 675.126 -172.266 670.745 -177.873 665.61C-196.465 648.471 -214.258 632.173 -240.853 616.813C-257.194 607.624 -254.187 596.578 -233.421 593.863C-202.193 590.561 -180.595 608.28 -160.027 606.953C-145.763 606.295 -134.003 607.215 -124.288 609.646C-109.177 610.164 -102.325 614.797 -91.7348 634.523C-74.2878 664.481 -41.5621 640.648 -24.1688 655.883C-15.0631 663.924 -13.4132 672.134 0.992721 687.404C16.7773 703.843 37.1106 725.672 75.8748 761.988C92.3296 777.37 106.422 791.244 119.031 803.678C177.119 872.581 188.493 910.098 204.262 930.2C204.944 931.153 205.634 932.184 206.248 933.118C230.135 973.749 241.533 1036.34 255.613 1100.31C256.746 1105.74 259.223 1113.12 262.485 1120.49C272.539 1144.64 291.065 1187.57 300.777 1244.49C308.754 1292.4 317.695 1342.95 326.785 1371.24C343.859 1424.84 320.241 1427.93 309.893 1472.61Z" fill="#82251C"/>
</g>
<defs>
<clipPath id="clip0_4642_676">
<rect width="3239" height="1809" fill="white"/>
</clipPath>
</defs>
</svg>
